<svg width="40" height="32" viewBox="0 0 40 32" fill="none" xmlns="http://www.w3.org/2000/svg">
<path d="M39.5 3.92021C38.0657 4.53896 36.5047 4.98427 34.8969 5.15771C36.5662 4.166 37.8162 2.59927 38.4125 0.75146C36.8461 1.68328 35.1301 2.3367 33.3407 2.68271C32.5928 1.88315 31.6882 1.24618 30.6833 0.811495C29.6785 0.376812 28.5949 0.153729 27.5 0.156147C23.0704 0.156147 19.5079 3.74677 19.5079 8.15302C19.5079 8.77177 19.5829 9.39052 19.7047 9.98584C13.0719 9.63896 7.1563 6.47021 3.22349 1.61865C2.50689 2.84263 2.13136 4.23627 2.13599 5.65458C2.13599 8.42958 3.54692 10.8765 5.69849 12.3155C4.43054 12.2656 3.19228 11.9171 2.08442 11.2983V11.3968C2.08442 15.2827 4.8313 18.503 8.49224 19.2436C7.80485 19.4222 7.09774 19.5135 6.38755 19.5155C5.86724 19.5155 5.37505 19.464 4.87817 19.3937C5.89067 22.5624 8.83911 24.864 12.35 24.939C9.60317 27.0905 6.16255 28.3561 2.42661 28.3561C1.7563 28.3561 1.13755 28.3327 0.495361 28.2577C4.03911 30.5311 8.2438 31.8436 12.7719 31.8436C27.4719 31.8436 35.5157 19.6655 35.5157 9.09521C35.5157 8.74833 35.5157 8.40146 35.4922 8.05458C37.0485 6.91552 38.4125 5.50458 39.5 3.92021Z" fill="#263238"/>
</svg>
