<svg width="48" height="48" viewBox="0 0 48 48" fill="none" xmlns="http://www.w3.org/2000/svg">
<g clip-path="url(#clip0_118_72)">
<path d="M46.9998 13.0139C46.728 12.0444 46.1986 11.1666 45.4678 10.4739C44.7163 9.75992 43.7954 9.24918 42.7918 8.98991C39.0358 7.99991 23.9878 7.99991 23.9878 7.99991C17.7144 7.92853 11.4426 8.24246 5.20777 8.93991C4.20415 9.21833 3.2849 9.74048 2.53177 10.4599C1.79177 11.1719 1.25577 12.0499 0.97577 13.0119C0.303156 16.6354 -0.0236464 20.3146 -0.000230477 23.9999C-0.0242305 27.6819 0.30177 31.3599 0.97577 34.9879C1.24977 35.9459 1.78377 36.8199 2.52577 37.5259C3.26777 38.2319 4.19177 38.7419 5.20777 39.0119C9.01377 39.9999 23.9878 39.9999 23.9878 39.9999C30.2691 40.0714 36.5489 39.7575 42.7918 39.0599C43.7954 38.8006 44.7163 38.2899 45.4678 37.5759C46.2078 36.8699 46.7338 35.9919 46.9978 35.0359C47.688 31.4138 48.0235 27.7331 47.9998 24.0459C48.0517 20.3431 47.7165 16.645 46.9998 13.0119V13.0139ZM19.2038 30.8479V17.1539L31.7238 24.0019L19.2038 30.8479Z" fill="#263238"/>
</g>
<defs>
<clipPath id="clip0_118_72">
<rect width="48" height="48" fill="white"/>
</clipPath>
</defs>
</svg>
