<svg width="32" height="32" viewBox="0 0 32 32" fill="none" xmlns="http://www.w3.org/2000/svg">
<path d="M18.8281 15.9997L24.0001 10.8223C24.3359 10.4407 24.5138 9.94549 24.4975 9.4374C24.4813 8.92931 24.2722 8.44647 23.9128 8.08701C23.5533 7.72755 23.0705 7.51846 22.5624 7.50224C22.0543 7.48602 21.5591 7.66388 21.1774 7.99968L16.0001 13.1717L10.8134 7.98368C10.6277 7.7979 10.4071 7.65054 10.1644 7.54999C9.92165 7.44945 9.6615 7.39771 9.39877 7.39771C9.13604 7.39771 8.87589 7.44945 8.63316 7.54999C8.39043 7.65054 8.16988 7.7979 7.9841 7.98368C7.79833 8.16946 7.65096 8.39 7.55042 8.63273C7.44988 8.87546 7.39813 9.13562 7.39813 9.39834C7.39813 9.66107 7.44988 9.92123 7.55042 10.164C7.65096 10.4067 7.79833 10.6272 7.9841 10.813L13.1721 15.9997L8.0001 21.1757C7.79727 21.357 7.63356 21.5778 7.51899 21.8246C7.40442 22.0713 7.3414 22.3389 7.33379 22.6108C7.32618 22.8828 7.37413 23.1534 7.47472 23.4062C7.57531 23.659 7.72642 23.8886 7.91879 24.081C8.11117 24.2734 8.34078 24.4245 8.59356 24.5251C8.84635 24.6256 9.117 24.6736 9.38896 24.666C9.66092 24.6584 9.92846 24.5954 10.1752 24.4808C10.422 24.3662 10.6428 24.2025 10.8241 23.9997L16.0001 18.8277L21.1708 23.9997C21.546 24.3749 22.0548 24.5856 22.5854 24.5856C23.116 24.5856 23.6249 24.3749 24.0001 23.9997C24.3753 23.6245 24.5861 23.1156 24.5861 22.585C24.5861 22.0544 24.3753 21.5455 24.0001 21.1703L18.8281 15.9997Z" fill="#263238"/>
</svg>
